# AST/ASF file generated using VICON BodyLanguage
# -----------------------------------------------
:version 1.10
:name VICON
:units
  mass 1.0
  length 0.45
  angle deg
:documentation
   .ast/.asf automatically generated from VICON data using
   VICON BodyBuilder and BodyLanguage model FoxedUp or BRILLIANT.MOD
:root
   order TX TY TZ RX RY RZ
   axis XYZ
   position 0 0 0  
   orientation 0 0 0 
:bonedata
  begin
     id 1 
     name lhipjoint
     direction 0.610259 -0.730986 0.305356 
     length 2.50941 
     axis 0 0 0  XYZ
  end
  begin
     id 2 
     name lfemur
     direction 0.34202 -0.939693 0  
     length 7.48822  
     axis 0 0 20  XYZ
    dof rx ry rz
    limits (-160.0 20.0)
           (-70.0 70.0)
           (-60.0 70.0)
  end
  begin
     id 3 
     name ltibia
     direction 0.34202 -0.939693 0   
     length 7.60141   
     axis 0 0 20   XYZ
    dof rx
    limits (-10.0 170.0)
  end
  begin
     id 4 
     name lfoot
     direction 0.0673488 -0.185039 0.980421   
     length 2.04049   
     axis -90 7.62852e-016 20   XYZ
    dof rx rz
    limits (-45.0 90.0)
           (-70.0 20.0)
  end
  begin
     id 5 
     name ltoes
     direction 1.5356e-011 -4.21729e-011 1   
     length 1.02897   
     axis -90 7.62852e-016 20   XYZ
    dof rx
    limits (-90.0 20.0)
  end
  begin
     id 6 
     name rhipjoint
     direction -0.57612 -0.754205 0.315056   
     length 2.43216  
     axis 0 0 0  XYZ 
  end
  begin
     id 7 
     name rfemur
     direction -0.34202 -0.939693 0   
     length 7.42799   
     axis 0 0 -20   XYZ
    dof rx ry rz
    limits (-160.0 20.0)
           (-70.0 70.0)
           (-70.0 60.0)
  end
  begin
     id 8 
     name rtibia
     direction -0.34202 -0.939693 0   
     length 7.69484   
     axis 0 0 -20   XYZ
    dof rx
    limits (-10.0 170.0)
 end
 begin
     id 9 
     name rfoot
     direction -0.111837 -0.30727 0.945028   
     length 2.15769  
     axis -90 -7.62852e-016 -20   XYZ
    dof rx rz
    limits (-45.0 90.0)
           (-20.0 70.0)
  end
  begin
     id 10 
     name rtoes
     direction -1.53539e-011 -4.21878e-011 1   
     length 1.07391   
     axis -90 -7.62852e-016 -20   XYZ
    dof rx
    limits (-90.0 20.0)
  end
  begin
     id 11 
     name lowerback
     direction 0.00552624 0.990109 -0.140195   
     length 2.12403   
     axis 0 0 0   XYZ
    dof rx ry rz
    limits (-20.0 45.0)
           (-30.0 30.0)
           (-30.0 30.0)
  end
  begin
     id 12 
     name upperback
     direction 0.00361898 0.999976 -0.00584723   
     length 2.13232   
     axis 0 0 0   XYZ
    dof rx ry rz
    limits (-20.0 45.0)
           (-30.0 30.0)
           (-30.0 30.0)
  end
  begin
     id 13 
     name thorax
     direction -0.000331275 0.998253 0.0590847   
     length 2.17688   
     axis 0 0 0   XYZ
    dof rx ry rz
    limits (-20.0 45.0)
           (-30.0 30.0)
           (-30.0 30.0)
  end
  begin
     id 14 
     name lowerneck
     direction -0.0561561 0.979832 0.19177   
     length 1.64159   
     axis 0 0 0   XYZ
    dof rx ry rz
    limits (-20.0 45.0)
           (-30.0 30.0)
           (-30.0 30.0)
  end
  begin
     id 15 
     name upperneck
     direction 0.0827153 0.979385 -0.184293   
     length 1.68939   
     axis 0 0 0   XYZ
    dof rx ry rz
    limits (-20.0 45.0)
           (-30.0 30.0)
           (-30.0 30.0)
  end
  begin
     id 16
     name head
     direction 0.0278583 0.995936 -0.0856488  
     length 1.70207  
     axis 0 0 0   XYZ
    dof rx ry rz
    limits (-20.0 45.0)
           (-30.0 30.0)
           (-30.0 30.0)
  end
  begin
     id 17 
     name lclavicle
     direction 0.950993 0.301131 -0.0702275  
     length 3.41652  
     axis 0 0 0   XYZ
    dof ry rz
    limits (-20.0 10.0)
           (0.0 20.0)
  end
  begin
     id 18 
     name lhumerus
     direction 1 -4.48981e-011 -3.9662e-029   
     length 5.32955   
     axis 180 -30 -90   XYZ
    dof rx ry rz
    limits (-60.0 90.0)
           (-90.0 90.0)
           (-90.0 90.0)
  end
  begin
     id 19
     name lradius
     direction 1 -4.48925e-011 -9.0549e-027   
     length 3.69232   
     axis 180 -30 -90   XYZ
    dof rx
    limits (-10.0 170.0)
  end
  begin
     id 20
     name lwrist
     direction 1 -4.49007e-011 -1.49005e-026   
     length 1.84616   
     axis 9.0955e-015 90 90   XYZ
    dof ry
    limits (-180.0 0.0)
 end
  begin
     id 21 
     name lhand
     direction 1 -4.49016e-011 -2.98023e-026   
     length 0.536598   
     axis 1.90115e-014 90 90   XYZ
    dof rx rz
    limits (-90.0 90.0)
           (-45.0 45.0)
  end
  begin
     id 22 
     name lfingers
     direction 1 -4.48924e-011 -5.9578e-026   
     length 0.432619   
     axis 3.80223e-014 90 90   XYZ
    dof rx
    limits (0.0 90.0)
  end
  begin
     id 23
     name lthumb
     direction 0.707107 -6.34947e-011 0.707107   
     length 0.621157   
     axis -90 45 -3.84942e-014   XYZ
    dof rx rz
    limits (-45.0 45.0)
           (-45.0 45.0)
  end
  begin
     id 24 
     name rclavicle
     direction -0.955495 0.276497 -0.102848   
     length 3.36357  
     axis 0 0 0   XYZ 
    dof ry rz
    limits (-10.0 20.0)
           (-20.0 0.0)
  end
  begin
     id 25 
     name rhumerus
     direction -1 -4.48961e-011 3.30983e-027  
     length 5.23431   
     axis 180 30 90   XYZ
    dof rx ry rz
    limits (-90.0 60.0)
           (-90.0 90.0)
           (-90.0 90.0)
  end
  begin
     id 26 
     name rradius
     direction -1 -4.48965e-011 -6.63263e-027   
     length 3.55301   
     axis 180 30 90   XYZ
    dof rx
    limits (-10.0 170.0)
  end
  begin
     id 27 
     name rwrist
     direction -1 -4.48942e-011 -1.48958e-026   
     length 1.77651   
     axis 9.0955e-015 -90 -90   XYZ
    dof ry
    limits (-180.0 0.0)
  end
  begin
     id 28
     name rhand
     direction -1 -4.48977e-011 -2.97966e-026   
     length 0.772522   
     axis 1.90115e-014 -90 -90   XYZ
    dof rx rz
    limits (-90.0 90.0)
           (-45.0 45.0)
  end
  begin
     id 29
     name rfingers
     direction -1 -4.49135e-011 -5.96389e-026   
     length 0.622827   
     axis 3.80223e-014 -90 -90   XYZ
    dof rx
    limits (0.0 90.0)
  end
  begin
     id 30
     name rthumb
     direction -0.707107 -6.34969e-011 0.707107   
     length 0.894259   
     axis -90 -45 3.84942e-014   XYZ
    dof rx rz
    limits (-45.0 45.0)
           (-45.0 45.0)
  end
:hierarchy
  begin
    root lhipjoint rhipjoint lowerback
    lhipjoint lfemur
    lfemur ltibia
    ltibia lfoot
    lfoot ltoes
    rhipjoint rfemur
    rfemur rtibia
    rtibia rfoot
    rfoot rtoes
    lowerback upperback
    upperback thorax
    thorax lowerneck lclavicle rclavicle
    lowerneck upperneck
    upperneck head
    lclavicle lhumerus
    lhumerus lradius
    lradius lwrist
    lwrist lhand lthumb
    lhand lfingers
    rclavicle rhumerus
    rhumerus rradius
    rradius rwrist
    rwrist rhand rthumb
    rhand rfingers
  end

#!OML:ASF F:\VICON\USERDATA\INSTALL\rory3\rory3.ASF
:FULLY-SPECIFIED
:DEGREES
1
root -7.76386 17.7391 -14.4243 -28.9767 -82.6325 26.5412
lowerback 12.5721 1.96912 0.706573
upperback 1.98691 2.60722 -0.468751
thorax -4.90126 1.23889 -1.31669
lowerneck -15.8444 2.29456 -9.7869
upperneck 41.2189 3.84157 4.07313
head 17.5854 0.0791848 4.2051
rclavicle -2.18663e-015 -1.19271e-014
rhumerus -32.0854 -15.3266 -73.5521
rradius 32.4939
rwrist 3.76667
rhand -17.4097 9.09773
rfingers 7.12502
rthumb 8.83996 -20.6971
lclavicle -2.18663e-015 -1.19271e-014
lhumerus -38.5809 22.8408 70.1691
lradius 27.4465
lwrist -9.88653
lhand -21.8412 24.6846
lfingers 7.12502
lthumb 4.56211 54.6155
rfemur 0.48013 2.45622 14.8242
rtibia 26.8015
rfoot -18.7001 -7.00744
rtoes -16.3936
lfemur -5.48858 -14.3315 -1.50594
ltibia 16.1174
lfoot 9.37553 4.04006
ltoes -8.02713
2
root -7.77672 17.7294 -14.3355 -30.5966 -82.6593 28.2038
lowerback 12.5376 1.93799 0.515342
upperback 1.9573 2.54181 -0.458097
thorax -4.92395 1.21005 -1.18679
lowerneck -15.8739 2.32604 -10.0058
upperneck 41.1962 3.97775 4.06207
head 17.5619 0.0990828 4.26139
rclavicle 6.70898e-015 -7.95139e-016
rhumerus -32.0132 -15.047 -73.4539
rradius 32.4224
rwrist 3.82947
rhand -17.632 9.10784
rfingers 7.12502
rthumb 8.62547 -20.696
lclavicle 6.70898e-015 -7.95139e-016
lhumerus -38.655 22.955 70.1808
lradius 27.1914
lwrist -9.42803
lhand -20.03 25.0467
lfingers 7.12502
lthumb 6.31089 54.9327
rfemur 0.461191 2.77526 14.3365
rtibia 26.925
rfoot -18.6513 -7.05336
rtoes -15.7045
lfemur -4.86658 -14.4357 -1.47583
ltibia 14.8992
lfoot 9.99387 3.44152
ltoes -8.39982
3
root -7.79083 17.7275 -14.2499 -31.1903 -82.651 28.8534
lowerback 12.4706 1.96506 0.404296
upperback 1.93633 2.56302 -0.471212
thorax -4.91286 1.22278 -1.13948
lowerneck -15.8796 2.26821 -10.064
upperneck 41.1089 3.89793 4.10442
head 17.5193 0.0713494 4.27369
rclavicle -1.35174e-014 -1.59028e-015
rhumerus -32.0316 -15.0354 -73.3749
rradius 32.3858
rwrist 3.92679
rhand -17.6308 9.05912
rfingers 7.12502
rthumb 8.62667 -20.7446
lclavicle -1.35174e-014 -1.59028e-015
lhumerus -38.5268 23.0219 70.1435
lradius 26.8265
lwrist -9.63464
lhand -20.0177 25.1366
lfingers 7.12502
lthumb 6.32273 55.0223
rfemur 0.38164 2.98265 13.9918
rtibia 27.1209
rfoot -18.994 -7.23829
rtoes -16.5969
lfemur -4.25853 -14.5446 -1.38561
ltibia 13.6121
lfoot 10.7971 3.03306
ltoes -8.91997
4
root -7.80659 17.7426 -14.1651 -30.7706 -82.6632 28.4868
lowerback 12.407 1.96816 0.401857
upperback 1.91282 2.5675 -0.478826
thorax -4.90211 1.22551 -1.14493
lowerneck -15.9907 2.24748 -10.0304
upperneck 41.1581 3.80937 4.252
head 17.5789 0.0580545 4.32777
rclavicle -4.42296e-015 -1.19271e-014
rhumerus -32.0691 -15.0888 -73.2991
rradius 32.3443
rwrist 3.88677
rhand -17.4864 9.16293
rfingers 7.12502
rthumb 8.76595 -20.635
lclavicle -4.42296e-015 -1.19271e-014
lhumerus -38.4366 23.13 70.0512
lradius 26.493
lwrist -10.1614
lhand -21.1744 24.8981
lfingers 7.12502
lthumb 5.20593 54.8141
rfemur 0.276797 3.11735 13.8461
rtibia 27.2739
rfoot -19.5694 -7.70653
rtoes -20.337
lfemur -3.65482 -14.4741 -1.20932
ltibia 12.4
lfoot 11.5692 2.40514
ltoes -9.60558
5
root -7.81806 17.7185 -14.068 -30.9839 -82.6299 28.7628
lowerback 12.3032 1.91257 0.365359
upperback 1.91933 2.48792 -0.50561
thorax -4.83991 1.18751 -1.13536
lowerneck -16.1446 2.29127 -9.98074
upperneck 41.1891 3.9008 4.21396
head 17.6298 0.0947192 4.32433
rclavicle 9.79014e-015 -1.59028e-015
rhumerus -31.9898 -15.1846 -73.2433
rradius 32.306
rwrist 3.9871
rhand -17.6332 9.09579
rfingers 7.12502
rthumb 8.62428 -20.7081
lclavicle 9.79014e-015 -1.59028e-015
lhumerus -38.4739 23.2138 70.0576
lradius 26.3881
lwrist -10.3389
lhand -20.5335 25.0712
lfingers 7.12502
lthumb 5.82472 54.9711
rfemur 0.390984 3.69818 13.499
rtibia 27.2751
rfoot -19.1129 -7.78868
rtoes -16.5118
lfemur -3.2173 -14.2785 -1.16557
ltibia 11.5096
lfoot 12.0848 1.62705
ltoes -9.78212
